<?xml version="1.0" encoding="UTF-8"?>
<svg id="Layer_1" data-name="Layer 1" xmlns="http://www.w3.org/2000/svg" viewBox="0 0 1000 320">
  <defs>
    <style>
      .cls-1 {
        fill: #2467ff;
        stroke-width: 0px;
      }
    </style>
  </defs>
  <g>
    <path class="cls-1" d="m417.42,169.92c1.22,3.76,4.46,6.39,8.49,6.39,3.15,0,6.91-1.4,6.91-5.08,0-1.14-.26-2.1-.87-2.89-1.58-2.01-6.39-2.98-8.75-3.41l-1.84-.35c-9.71-1.75-18.46-8.14-18.46-18.9,0-12.69,11.46-20.22,23.45-20.22,10.94,0,19.95,5.6,22.58,16.8l-15.75,3.06c-.88-3.5-3.5-5.95-7.18-5.95-2.89,0-6.13,1.58-6.13,4.9,0,1.05.26,1.93.88,2.63.61.79,1.57,1.4,2.89,1.84,1.31.53,3.06.96,5.34,1.4l1.75.35c10.06,2.01,19.16,7.79,19.16,19.08,0,13.21-11.81,20.65-24.24,20.65-11.38,0-21.44-5.6-24.33-17.33l16.1-2.98Z"/>
    <path class="cls-1" d="m458.72,188.91l24.41-62.13h18.64l24.5,62.13h-18.29l-3.85-10.85h-23.98l-3.76,10.85h-17.68Zm26.25-24.59h14.35l-7.18-20.39-7.18,20.39Z"/>
    <path class="cls-1" d="m580.01,126.78v14.79h-23.45v10.77h20.39v14.7h-20.39v21.88h-17.06v-62.13h40.52Z"/>
    <path class="cls-1" d="m636.8,126.78v14.35h-24.76v9.01h21.7v14.26h-21.7v10.24h25.73v14.26h-42.35v-62.13h41.39Z"/>
    <path class="cls-1" d="m671.54,126.78v22.4h22.05v-22.4h17.5v62.13h-17.5v-24.33h-22.05v24.33h-17.5v-62.13h17.5Z"/>
    <path class="cls-1" d="m724.3,188.91l24.41-62.13h18.64l24.5,62.13h-18.29l-3.85-10.85h-23.98l-3.76,10.85h-17.68Zm26.25-24.59h14.35l-7.18-20.39-7.18,20.39Z"/>
    <path class="cls-1" d="m810.76,126.78l14.09,43.58,14-43.58h18.46l-23.28,62.13h-19.16l-23.36-62.13h19.25Z"/>
    <path class="cls-1" d="m911.92,126.78v14.35h-24.77v9.01h21.7v14.26h-21.7v10.24h25.73v14.26h-42.35v-62.13h41.39Z"/>
    <path class="cls-1" d="m944.03,126.78l24.68,36.32v-36.32h16.63v62.13h-14.88l-24.68-36.32v36.32h-16.63v-62.13h14.88Z"/>
  </g>
  <g>
    <path class="cls-1" d="m302.56,32.73C262.27,15.82,218.02,6.48,171.59,6.48S82.7,15.45,43.06,31.71c-9.7,3.98-19.17,8.39-28.4,13.23.56,10.53,1.6,20.92,3.11,31.17,13.06,89.11,60.82,166.95,129.11,219.37,8.36,6.41,17,12.43,25.94,18.05,8.94-5.62,17.59-11.64,25.94-18.06,67.95-52.14,115.57-129.48,128.92-218.04,1.54-10.26,2.63-20.68,3.23-31.23-9.2-4.92-18.65-9.41-28.34-13.47Zm-129.73,246.06C103.36,229.1,55.28,151.42,45.05,62.24c38.64-17.3,81.47-26.92,126.54-26.92s89.64,10.02,128.89,27.99c-10.49,88.73-58.47,165.99-127.64,215.48Z"/>
    <g>
      <path class="cls-1" d="m143.56,158.29c9.6-.89,19.33-1.36,29.18-1.36s19.58.46,29.18,1.36c.38.03.75.06,1.13.1,0,.01-.01.01-.01.01-5.71,9.59-11.93,18.83-18.61,27.71-3.76,4.99-7.66,9.86-11.72,14.61-2.7-3.15-5.33-6.34-7.89-9.59-2.51-3.18-6.42-4.93-10.47-4.7-9.01.52-17.91,1.44-26.69,2.72,7.75,11.44,16.18,22.39,25.23,32.76,6.32,7.25,12.95,14.24,19.87,20.91,6.89-6.7,13.51-13.68,19.82-20.95,9.01-10.37,17.41-21.32,25.11-32.75,5.72-8.47,11.07-17.21,16.01-26.2.07-.13.14-.26.2-.37,4.7-8.56,9.04-17.34,13-26.33-9.62-2.16-19.4-3.9-29.33-5.2-14.66-1.95-29.63-2.95-44.82-2.95s-30.34,1.01-45.07,2.98c-5.18-10.99-9.71-22.34-13.58-34,19.01-3.66,38.63-5.56,58.71-5.56s39.41,1.88,58.28,5.48c9.55,1.81,18.94,4.06,28.15,6.74,2.94-9.11,5.49-18.39,7.65-27.83-9.19-2.66-18.54-4.93-28.04-6.8-21.36-4.22-43.45-6.44-66.04-6.44s-45.02,2.25-66.53,6.53c-9.49,1.89-18.83,4.18-28.03,6.85,2.18,9.42,4.75,18.7,7.69,27.81,3.6,11.07,7.74,21.9,12.41,32.45,2.53,5.73,5.22,11.37,8.06,16.93,2.84,5.55,8.9,8.63,15.06,7.69,6.86-1.04,13.79-1.88,20.78-2.5l1.32-.12Z"/>
      <path class="cls-1" d="m203.03,158.4s-.01.01-.01.01c-.37-.05-.74-.08-1.11-.12.38.03.75.06,1.13.1Z"/>
      <path class="cls-1" d="m203.03,158.4s-.01.01-.01.01c-.37-.05-.74-.08-1.11-.12.38.03.75.06,1.13.1Z"/>
    </g>
  </g>
</svg>