<?xml version="1.0" encoding="UTF-8"?>
<svg id="logo" xmlns="http://www.w3.org/2000/svg" viewBox="0 0 1000 1000">
  <defs>
    <style>
      .cls-1 {
        stroke-width: 0px;
      }
    </style>
  </defs>
  <path class="cls-1" d="m883.36,125.73c-118.87-49.88-249.41-77.44-386.38-77.44S234.73,74.75,117.81,122.71c-28.62,11.74-56.56,24.75-83.77,39.03,1.64,31.05,4.72,61.73,9.18,91.96,38.52,262.9,179.43,492.51,380.87,647.16,24.65,18.9,50.16,36.67,76.52,53.24,26.36-16.57,51.9-34.34,76.52-53.27,200.45-153.82,340.95-381.97,380.32-643.22,4.55-30.26,7.77-61.01,9.52-92.13-27.15-14.52-55.02-27.77-83.6-39.75Zm-382.72,725.9C295.7,705.03,153.86,475.89,123.67,212.79c114-51.05,240.33-79.43,373.31-79.43s264.44,29.55,380.22,82.58c-30.95,261.77-172.48,489.67-376.56,635.69Z"/>
  <g>
    <path class="cls-1" d="m414.27,496.16c28.31-2.64,57.04-4.01,86.07-4.01s57.76,1.37,86.07,4.01c1.13.1,2.23.17,3.32.31,0,.03-.03.03-.03.03-16.84,28.28-35.19,55.56-54.91,81.75-11.09,14.72-22.6,29.1-34.58,43.1-7.96-9.28-15.71-18.71-23.28-28.3-7.41-9.39-18.95-14.55-30.89-13.86-26.58,1.54-52.83,4.25-78.74,8.02,22.87,33.76,47.72,66.04,74.43,96.65,18.66,21.4,38.21,42.01,58.61,61.69,20.34-19.75,39.85-40.36,58.47-61.8,26.57-30.61,51.35-62.89,74.09-96.61,16.88-24.99,32.66-50.77,47.25-77.3.21-.38.41-.75.58-1.1,13.87-25.27,26.67-51.15,38.34-77.68-28.38-6.37-57.24-11.5-86.51-15.34-43.24-5.75-87.4-8.7-132.22-8.7s-89.49,2.98-132.97,8.8c-15.27-32.42-28.66-65.9-40.06-100.31,56.08-10.78,113.97-16.4,173.2-16.4s116.26,5.55,171.93,16.16c28.18,5.34,55.87,11.98,83.06,19.89,8.66-26.87,16.19-54.26,22.56-82.1-27.11-7.84-54.71-14.55-82.71-20.06-63.03-12.46-128.18-19-194.83-19s-132.8,6.64-196.27,19.27c-28,5.58-55.56,12.32-82.68,20.2,6.44,27.8,14,55.15,22.7,82.03,10.61,32.66,22.84,64.6,36.6,95.72,7.47,16.9,15.4,33.55,23.77,49.94,8.37,16.38,26.24,25.45,44.43,22.69,20.24-3.08,40.68-5.54,61.31-7.38l3.9-.34Z"/>
    <path class="cls-1" d="m589.73,496.46s-.03.03-.03.03c-1.1-.14-2.19-.24-3.29-.34,1.13.1,2.22.17,3.32.31Z"/>
    <path class="cls-1" d="m589.73,496.46s-.03.03-.03.03c-1.1-.14-2.19-.24-3.29-.34,1.13.1,2.22.17,3.32.31Z"/>
  </g>
</svg>